<svg version="1.1" id="Layer_1" xmlns="http://www.w3.org/2000/svg" xmlns:xlink="http://www.w3.org/1999/xlink" x="0px" y="0px"
	 width="100%" viewBox="0 0 736 848" enable-background="new 0 0 736 848" xml:space="preserve">
<path fill="#000000" opacity="1.000000" stroke="none" 
	d="
M63.937225,406.000000 
	C63.940823,363.674988 63.891441,321.849823 64.025909,280.025238 
	C64.040085,275.616272 63.179302,272.649994 58.870510,270.440857 
	C46.627960,264.164032 46.227650,246.067429 51.147556,237.328766 
	C57.557007,225.944397 72.640587,222.042801 84.228027,228.972641 
	C88.065559,231.267670 90.602303,230.805878 94.102905,228.777664 
	C148.011108,197.543655 201.986572,166.425720 255.947464,135.282669 
	C285.811218,118.047096 315.656372,100.779030 345.573853,83.637222 
	C348.547455,81.933456 349.719940,79.965912 349.735901,76.509560 
	C349.800354,62.556541 360.427216,51.830780 373.904114,51.769741 
	C387.419800,51.708527 398.191132,62.692410 398.280304,76.859291 
	C398.298981,79.824730 399.044708,81.692688 401.787781,83.272415 
	C486.231842,131.903290 570.635315,180.604706 654.985535,229.398117 
	C658.134460,231.219635 660.337036,231.279205 663.513977,229.349396 
	C675.247559,222.221970 690.467102,226.519455 697.160461,238.496765 
	C703.808716,250.393372 700.242004,264.167908 688.290344,271.277618 
	C684.933105,273.274780 683.912598,275.512421 683.915710,279.273254 
	C683.995911,376.087158 683.987976,472.901245 683.863159,569.715088 
	C683.857239,574.334717 684.917847,577.208313 689.245300,579.697449 
	C696.788391,584.036194 700.701660,591.651184 701.129333,599.955322 
	C701.839478,613.743713 685.621826,626.651855 672.016968,623.988708 
	C669.077087,623.413208 665.980957,622.857666 663.653381,620.905701 
	C660.409851,618.185486 657.736755,618.766174 654.274658,620.769226 
	C570.943848,668.983521 487.560089,717.106445 404.119629,765.130737 
	C400.121704,767.431824 398.169128,769.799377 398.176178,774.766968 
	C398.194092,787.408569 386.841461,797.922729 374.037231,797.919006 
	C361.211639,797.915283 349.890625,787.486023 349.834534,774.815918 
	C349.812622,769.864929 347.910522,767.480469 343.892487,765.178406 
	C303.135101,741.827332 262.479065,718.299316 221.796066,694.818359 
	C178.969147,670.100098 136.125168,645.411255 93.353584,620.597595 
	C89.978394,618.639465 87.359383,618.319336 83.752350,620.284790 
	C73.464256,625.890869 61.950954,623.574829 53.979645,615.700073 
	C45.777203,607.597046 45.724735,584.501770 59.294445,578.222839 
	C63.192230,576.419312 63.988125,573.833679 63.982422,569.965881 
	C63.902073,515.477356 63.933128,460.988647 63.937225,406.000000 
M484.993134,527.500305 
	C484.993134,543.037903 484.993134,558.575562 484.993134,573.894775 
	C487.637848,574.356201 488.723114,573.495605 489.854462,572.844666 
	C498.085205,568.109009 506.241272,563.238403 514.560181,558.663635 
	C517.575806,557.005249 518.750305,554.976196 518.721008,551.524780 
	C518.578308,534.694946 518.474854,517.859741 518.786621,501.034302 
	C518.877869,496.109192 517.088074,493.572144 512.840332,491.408234 
	C494.436157,482.032440 476.183777,472.358246 457.897217,462.752533 
	C456.194244,461.858002 453.845276,461.322235 453.787598,458.860413 
	C453.660492,453.436981 453.748138,448.008545 453.748138,442.600708 
	C456.039948,442.272583 457.335663,443.087372 458.640167,443.771393 
	C482.982880,456.535675 507.295380,469.357941 531.685913,482.030029 
	C534.703186,483.597656 535.455017,485.696899 535.437378,488.833679 
	C535.342712,505.664124 535.387207,522.495483 535.437622,539.326416 
	C535.443420,541.270203 534.964783,543.317566 536.509399,545.840698 
	C543.804993,541.599670 551.100647,537.415527 558.328918,533.117981 
	C560.210022,531.999634 559.801697,529.893616 559.802002,528.101196 
	C559.811829,459.443787 559.779785,390.786377 559.862976,322.129089 
	C559.867188,318.646606 558.624084,316.618469 555.667908,314.988007 
	C548.375366,310.965881 541.223877,306.688782 533.984253,302.569458 
	C531.912903,301.390869 530.034363,299.680115 526.924438,299.423187 
	C526.924438,312.608124 526.783203,325.414215 527.000122,338.214264 
	C527.077271,342.768097 525.440308,345.959991 522.244019,349.120056 
	C500.442810,370.674438 478.759705,392.349091 457.152832,414.098572 
	C446.909027,424.409973 450.481049,422.585815 440.226013,414.975281 
	C436.334869,412.087555 436.250824,410.028229 439.834747,406.497925 
	C461.794434,384.866638 483.477020,362.954315 505.366455,341.251160 
	C508.410431,338.233124 509.909485,335.169739 509.780304,330.756195 
	C509.468414,320.100067 509.041138,309.378235 509.882141,298.779846 
	C510.525208,290.676056 507.689606,286.000854 500.477264,283.039215 
	C495.521484,281.004120 491.365417,277.225128 486.243744,275.548248 
	C484.888336,277.785339 485.271423,279.661591 485.263641,281.452393 
	C485.215912,292.450684 485.135559,303.450531 485.282745,314.446930 
	C485.323792,317.510468 484.480164,319.772034 482.284424,321.950775 
	C461.705200,342.370728 441.209381,362.874817 420.702209,383.367340 
	C412.176788,391.886688 412.283478,391.808167 403.678650,383.190613 
	C400.925140,380.433044 400.919189,378.826202 403.792053,375.995605 
	C424.207825,355.880890 444.397064,335.536469 464.735687,315.343018 
	C466.913788,313.180420 467.889862,310.935669 467.859406,307.859375 
	C467.734039,295.195648 467.628418,282.526184 467.901367,269.867157 
	C467.993805,265.582092 466.380737,263.317963 462.773071,261.260651 
	C434.410034,245.086380 406.133270,228.759979 377.902527,212.355576 
	C375.117889,210.737473 373.006409,210.561646 370.155609,212.223038 
	C341.227356,229.081879 312.246277,245.850784 283.201538,262.508087 
	C280.151611,264.257233 279.155762,266.369080 279.194794,269.733002 
	C279.339813,282.229614 279.374207,294.730774 279.179688,307.226044 
	C279.122864,310.876007 280.292328,313.461761 282.851624,315.998993 
	C301.312622,334.300751 319.660461,352.716766 338.027985,371.112671 
	C347.103058,380.201782 347.004425,380.130737 337.815674,388.960266 
	C335.239563,391.435638 333.642883,391.174622 331.263092,388.781342 
	C309.055603,366.448059 286.766876,344.195496 264.458069,321.963257 
	C262.558105,320.069824 261.711700,318.068481 261.745209,315.336304 
	C261.880127,304.339417 261.837769,293.339752 261.771790,282.341644 
	C261.760345,280.436951 262.358032,278.321320 260.081848,276.052490 
	C253.808899,279.625458 247.417923,283.381348 240.907867,286.918060 
	C238.217667,288.379547 237.235046,290.302094 237.268036,293.338013 
	C237.401978,305.668274 237.470871,318.003326 237.249054,330.330963 
	C237.176758,334.349518 238.517639,337.151947 241.331284,339.940094 
	C262.045502,360.466858 282.615234,381.139404 303.235107,401.761414 
	C312.344574,410.871857 312.253723,410.759277 302.669647,419.275085 
	C299.876953,421.756500 298.103699,421.569031 295.601868,419.054779 
	C271.623169,394.957397 247.580673,370.923401 223.508499,346.919373 
	C221.107925,344.525604 220.007034,341.909637 220.051849,338.481140 
	C220.191254,327.817871 220.137238,317.151276 220.060272,306.486664 
	C220.045425,304.430450 220.677872,302.183929 219.149704,300.355560 
	C217.192993,300.218719 215.919479,301.423737 214.509140,302.230988 
	C207.280441,306.368591 200.197449,310.783386 192.808777,314.609283 
	C189.115814,316.521515 188.023697,318.962585 188.046478,322.905792 
	C188.184128,346.735077 188.117966,370.565582 188.117920,394.395660 
	C188.117828,438.223053 188.103806,482.050476 188.149323,525.877808 
	C188.151825,528.289795 187.181000,531.335022 189.580612,532.913269 
	C196.065796,537.178894 202.717682,541.217041 209.844711,544.425171 
	C211.964218,541.559509 211.709152,538.657288 211.547272,535.906677 
	C210.645248,520.580750 211.606415,505.260773 211.466766,489.942719 
	C211.428680,485.763977 212.905777,483.723267 216.432663,481.896149 
	C240.690689,469.329071 264.847473,456.566589 289.053467,443.898743 
	C290.482513,443.150909 291.879120,442.059845 293.889282,442.570343 
	C294.820587,446.787964 293.944946,451.134277 294.390259,455.392761 
	C294.798645,459.297546 293.192444,461.350800 289.741638,463.120026 
	C270.620728,472.923279 251.637589,482.994843 232.575943,492.914337 
	C230.067474,494.219696 228.255875,495.534882 228.281158,498.860687 
	C228.416840,516.690552 228.357605,534.521973 228.337219,552.352844 
	C228.334991,554.302002 228.700256,555.852966 230.613785,556.937988 
	C240.321808,562.442505 249.972702,568.047729 259.653687,573.600159 
	C260.249237,573.941711 260.913422,573.956787 261.978333,572.939087 
	C261.978333,571.623230 261.977631,569.817017 261.978424,568.010803 
	C261.986450,549.680115 262.067657,531.348877 261.942688,513.019104 
	C261.917053,509.261108 262.911163,506.262482 265.574127,503.614319 
	C274.199402,495.036987 282.726990,486.361450 291.321777,477.753326 
	C292.211304,476.862457 292.969910,475.618378 295.250427,475.819305 
	C294.689301,486.793945 299.046539,498.809723 286.794769,506.750244 
	C285.153931,507.813721 284.024200,509.634277 282.504578,510.923676 
	C280.003571,513.045715 279.266296,515.637512 279.284302,518.878174 
	C279.398315,539.374817 279.432953,559.872986 279.266663,580.368896 
	C279.238098,583.891052 280.548431,585.809021 283.451782,587.478821 
	C311.467560,603.590759 339.475342,619.718323 367.356964,636.060486 
	C372.113159,638.848206 375.906189,638.817871 380.693085,636.007996 
	C408.134338,619.900635 435.718536,604.035461 463.346924,588.250427 
	C466.502380,586.447571 467.770386,584.478455 467.733368,580.819214 
	C467.557892,563.489990 466.982239,546.122009 467.902557,528.839905 
	C468.501221,517.598389 466.132019,508.695618 456.734283,502.072388 
	C455.026459,500.868744 452.957367,499.293488 452.887543,497.035553 
	C452.669281,489.975525 452.807343,482.904480 452.807343,475.730927 
	C455.575623,475.931732 456.546143,477.655029 457.793427,478.876373 
	C462.079315,483.073303 465.857208,487.916565 470.595978,491.498322 
	C482.436096,500.447540 487.571747,511.796692 484.993134,527.500305 
M629.334717,467.499939 
	C629.338562,497.325165 629.359619,527.150391 629.318115,556.975525 
	C629.314209,559.782654 629.580750,562.022766 632.477234,563.627930 
	C640.780151,568.229126 648.875854,573.202393 657.134155,577.886292 
	C662.919861,581.167786 667.697510,578.307129 667.698059,571.654297 
	C667.705994,473.847504 667.702820,376.040680 667.683228,278.233887 
	C667.681946,271.884094 662.418152,268.809753 656.905518,271.956543 
	C649.383972,276.250061 642.039429,280.866394 634.406677,284.947296 
	C630.502258,287.034821 629.220581,289.629272 629.232300,294.046936 
	C629.384949,351.530945 629.334473,409.015503 629.334717,467.499939 
M118.668747,302.503632 
	C118.668327,298.505035 118.478981,294.494751 118.726334,290.511536 
	C118.929863,287.233887 117.643608,285.291473 114.844467,283.723724 
	C107.289276,279.492096 99.865150,275.027069 92.368561,270.690002 
	C86.978874,267.571838 80.306030,271.342285 80.304710,277.593140 
	C80.284081,375.559052 80.286942,473.524994 80.311539,571.490906 
	C80.313080,577.628052 83.584129,579.479004 89.047127,576.377625 
	C96.578568,572.102051 103.801453,567.232300 111.539513,563.387939 
	C117.320847,560.515747 118.814720,556.640625 118.799141,550.416321 
	C118.593140,468.112122 118.665268,385.807190 118.668747,302.503632 
M576.195435,498.500000 
	C576.196960,507.666412 576.302490,516.834656 576.143677,525.998230 
	C576.087891,529.217224 577.186035,531.215027 580.007385,532.821960 
	C589.996399,538.511475 599.859558,544.421631 609.794006,550.207703 
	C610.732117,550.754089 611.650330,551.724915 612.930054,551.087952 
	C612.930054,466.904572 612.930054,382.754150 612.930054,297.675171 
	C601.843140,304.146729 591.763489,310.266083 581.438904,315.939850 
	C577.359192,318.181793 576.115662,320.977051 576.126038,325.504883 
	C576.257324,382.836334 576.202637,440.168213 576.195435,498.500000 
M134.388260,427.499908 
	C134.388260,467.720886 134.388260,507.941864 134.388260,548.310425 
	C137.282883,548.498474 138.718933,547.297485 140.254166,546.402039 
	C148.885681,541.368042 157.392197,536.101990 166.191223,531.380615 
	C170.444656,529.098389 171.834915,526.261536 171.824051,521.500305 
	C171.679993,458.365936 171.414932,395.227997 172.033844,332.099274 
	C172.143692,320.895752 169.690826,313.849091 159.050552,309.292633 
	C150.751923,305.738892 143.229980,300.371490 134.388519,295.245117 
	C134.388519,339.701324 134.388519,383.100616 134.388260,427.499908 
M616.687744,225.886917 
	C587.190308,208.852524 557.692871,191.818115 527.696045,174.495300 
	C527.341919,176.263367 526.998047,177.187393 526.995728,178.112274 
	C526.965271,190.270874 527.057922,202.430328 526.938293,214.587784 
	C526.906677,217.796158 528.629089,219.359589 531.075928,220.767456 
	C560.084290,237.458069 589.093262,254.147995 618.034973,270.953613 
	C620.572327,272.427002 622.502747,272.319305 624.898193,270.879272 
	C632.604309,266.246674 640.434387,261.820648 648.158691,257.217682 
	C653.298340,254.154922 653.251404,246.949814 648.065613,243.932663 
	C637.847534,237.987671 627.572083,232.141464 616.687744,225.886917 
M162.962082,207.527313 
	C142.066040,219.604950 121.149506,231.647369 100.287155,243.782928 
	C94.461998,247.171387 94.610641,252.108780 100.433357,255.500244 
	C108.488358,260.191895 116.608177,264.780334 124.532402,269.684143 
	C127.364548,271.436768 129.499619,271.230713 132.266846,269.623047 
	C159.902176,253.567383 187.582550,237.588608 215.323761,221.716675 
	C218.569946,219.859375 220.189178,217.732788 220.126633,213.859039 
	C219.949203,202.872574 220.125412,191.880768 220.064056,180.891632 
	C220.054550,179.186996 220.608490,177.178680 218.293152,175.582535 
	C200.163406,186.054367 181.881836,196.613907 162.962082,207.527313 
M164.333405,643.084961 
	C179.541748,651.864624 194.750092,660.644287 210.332718,669.640015 
	C210.852158,667.824829 211.349091,666.886841 211.355377,665.945557 
	C211.437881,653.628784 211.469406,641.311523 211.466888,628.994385 
	C211.466339,626.330383 209.707977,624.875061 207.570343,623.646912 
	C181.157745,608.471802 154.736008,593.312134 128.396759,578.010620 
	C125.388023,576.262756 122.997360,576.292053 120.117790,578.062805 
	C114.305931,581.636719 108.331726,584.945557 102.451996,588.410400 
	C93.417328,593.734375 93.314079,602.081848 102.280937,607.277039 
	C122.733139,619.126831 143.224670,630.908691 164.333405,643.084961 
M590.936340,594.495178 
	C574.218567,604.150208 557.560242,613.910828 540.739441,623.382690 
	C536.748596,625.629944 535.165222,628.260681 535.315002,632.896362 
	C535.653503,643.373901 535.367126,653.870605 535.424072,664.359070 
	C535.433411,666.078796 534.737366,668.071228 536.556152,669.433777 
	C537.850708,669.657959 538.846497,668.979309 539.839417,668.406372 
	C576.023743,647.525757 612.212463,626.652466 648.365967,605.718506 
	C653.160767,602.942200 653.246460,595.495911 648.502136,592.621216 
	C640.531677,587.791687 632.386963,583.249878 624.408020,578.433838 
	C621.969910,576.962158 620.086487,577.668335 617.955017,578.913513 
	C609.189087,584.034424 600.377686,589.077393 590.936340,594.495178 
M291.740906,716.679260 
	C312.481323,728.674072 333.216705,740.677673 353.965576,752.657898 
	C359.403748,755.797913 364.757782,752.778870 364.819214,746.472839 
	C364.903564,737.818787 364.604950,729.154236 364.937439,720.512146 
	C365.107910,716.080933 363.554688,713.622559 359.704987,711.444458 
	C339.143799,699.811340 318.748566,687.884949 298.283112,676.082275 
	C292.298431,672.630798 286.271667,669.252380 279.337708,665.314331 
	C279.337708,676.184692 280.086212,686.018860 279.133667,695.685486 
	C278.118927,705.982971 280.893616,713.036194 291.740906,716.679260 
M389.725098,754.286377 
	C390.815063,753.955078 392.017334,753.818481 392.978516,753.263977 
	C416.765839,739.540955 440.516876,725.755066 464.310150,712.042419 
	C466.758240,710.631470 467.733154,708.828735 467.705231,705.986450 
	C467.587524,694.001099 467.667358,682.013855 467.642273,670.027405 
	C467.639954,668.929688 467.984955,667.633606 466.503143,666.902588 
	C465.950623,667.076111 465.258453,667.165344 464.700226,667.487061 
	C438.170624,682.776550 411.661743,698.102112 385.117706,713.366394 
	C382.738556,714.734558 382.169586,716.668274 382.193024,719.187134 
	C382.264130,726.844482 382.649780,734.536133 382.070862,742.150391 
	C381.614655,748.151489 383.333771,752.069519 389.725098,754.286377 
M303.966675,170.412338 
	C322.577240,159.689911 341.149200,148.899368 359.831940,138.304184 
	C363.443512,136.256012 365.030914,133.795700 364.897156,129.564499 
	C364.623688,120.913101 364.894012,112.245995 364.809387,103.586632 
	C364.747894,97.296967 359.393524,94.111000 354.016388,97.205368 
	C330.207397,110.906555 306.456543,124.708755 282.633759,138.385803 
	C280.151611,139.810852 279.180908,141.539886 279.209778,144.381378 
	C279.328156,156.038208 279.243896,167.696991 279.278290,179.354919 
	C279.282013,180.623474 278.914185,182.052002 280.844025,183.652756 
	C288.155762,179.460495 295.739288,175.112381 303.966675,170.412338 
M410.413544,151.010376 
	C429.212677,161.852448 448.011810,172.694519 467.763977,184.086227 
	C467.763977,169.227631 467.735291,155.761490 467.787659,142.295670 
	C467.798370,139.542252 465.786865,138.705307 463.923492,137.628891 
	C440.559875,124.132553 417.200592,110.628639 393.829712,97.144844 
	C388.883575,94.291161 382.294128,97.952538 382.242645,103.646500 
	C382.161346,112.642593 382.326599,121.641838 382.165192,130.635757 
	C382.109619,133.731155 383.330231,135.500031 385.948975,136.960007 
	C393.949066,141.420120 401.840057,146.075897 410.413544,151.010376 
M340.551880,639.006042 
	C320.481232,627.442993 300.410553,615.879944 279.371765,603.759155 
	C279.371765,618.274353 279.404144,631.243225 279.345703,644.211792 
	C279.333344,646.959412 281.292603,647.805115 283.174011,648.890930 
	C308.270905,663.375244 333.351074,677.888550 358.469849,692.334778 
	C360.252136,693.359680 361.856964,695.106323 364.752930,694.565857 
	C364.752930,681.436951 364.764740,668.310974 364.742218,655.184937 
	C364.738098,652.782043 362.834747,651.832764 361.104553,650.830566 
	C354.475739,646.990540 347.833191,643.174316 340.551880,639.006042 
M382.197479,677.498901 
	C382.197479,683.379822 382.197479,689.260742 382.197479,695.090515 
	C385.205719,695.247253 386.603333,693.935852 388.152374,693.043213 
	C410.639923,680.085388 432.867401,666.644836 455.720032,654.367615 
	C464.720520,649.532104 469.174316,644.328247 467.890991,633.671265 
	C466.772308,624.381714 467.657898,614.850830 467.657898,605.737854 
	C466.152130,604.985535 465.457550,605.529236 464.753662,605.934692 
	C438.231506,621.212952 411.721069,636.511536 385.177490,651.752380 
	C382.823883,653.103760 382.150085,654.979004 382.185883,657.528320 
	C382.274628,663.850769 382.203949,670.175476 382.197479,677.498901 
M426.588806,221.826645 
	C439.964020,229.400726 452.983765,237.626099 466.610779,244.582214 
	C468.181305,242.451981 467.776306,240.731613 467.782928,239.116333 
	C467.825256,228.785965 467.625244,218.450516 467.899567,208.127213 
	C468.008087,204.043732 466.466125,201.915955 462.994873,199.937225 
	C438.395142,185.914520 413.930725,171.654602 389.395844,157.517746 
	C387.444702,156.393494 385.598541,154.806885 382.871155,154.991318 
	C382.676788,155.628342 382.334412,156.231033 382.331940,156.835114 
	C382.281555,168.997665 382.325928,181.160904 382.210449,193.322662 
	C382.182831,196.231918 384.037231,197.378098 386.093536,198.560150 
	C399.378876,206.197006 412.661774,213.837997 426.588806,221.826645 
M279.253235,234.451477 
	C279.581055,237.977356 278.498474,241.645264 280.031403,245.145844 
	C280.808380,244.964401 281.348145,244.960297 281.755280,244.725830 
	C308.450745,229.351959 335.125641,213.942368 361.838135,198.598114 
	C364.204803,197.238663 364.846222,195.365234 364.829315,192.822098 
	C364.758484,182.162262 364.820648,171.501556 364.774109,160.841446 
	C364.766388,159.074188 365.099304,157.106216 363.112122,155.772766 
	C361.619141,155.639008 360.343262,156.494263 359.068878,157.229111 
	C333.537842,171.950684 308.033722,186.719131 282.469177,201.382217 
	C279.919739,202.844513 279.174347,204.724426 279.209839,207.483871 
	C279.321259,216.144012 279.252625,224.806473 279.253235,234.451477 
M543.869080,246.696503 
	C538.579346,243.716797 533.289612,240.737091 527.551147,237.504623 
	C527.249329,239.368973 526.962036,240.322189 526.960999,241.275711 
	C526.948486,252.767960 527.050354,264.260895 526.949341,275.752106 
	C526.922058,278.852722 528.281189,280.588196 530.849304,282.052673 
	C542.420044,288.650787 553.953979,295.316376 565.402222,302.124054 
	C567.816162,303.559479 569.616028,303.160553 571.806091,301.859131 
	C581.396667,296.160004 591.065430,290.592590 600.677185,284.928619 
	C601.898376,284.208984 603.487671,283.763336 603.929810,281.435120 
	C584.207153,270.026428 564.356079,258.543457 543.869080,246.696503 
M220.073547,264.496185 
	C219.782288,255.991531 220.708572,247.427383 219.403717,237.823380 
	C194.118851,252.459885 169.776184,266.550964 144.480698,281.193634 
	C157.025970,288.525452 168.475204,295.215271 179.922592,301.908325 
	C181.764923,302.985504 183.113678,301.673035 184.494217,300.885345 
	C192.006393,296.598785 199.152145,291.470673 207.053802,288.115265 
	C217.574005,283.647888 222.385941,276.871277 220.073547,264.496185 
M175.351227,545.914246 
	C164.052338,552.482849 152.753448,559.051392 140.292526,566.295532 
	C164.273270,580.140137 187.065262,593.298523 210.217148,606.664612 
	C210.757507,605.064758 211.204803,604.317444 211.239517,603.551514 
	C211.789276,591.413757 211.850327,579.276184 211.154846,567.139099 
	C211.011047,564.629822 209.467880,563.350281 207.488937,562.221680 
	C198.381134,557.027710 189.305878,551.776611 180.215454,546.552002 
	C178.916565,545.805481 177.627396,544.962646 175.351227,545.914246 
M551.314453,555.884949 
	C547.418030,558.115662 543.584229,560.466614 539.604614,562.537415 
	C536.629517,564.085510 535.277649,566.106018 535.344238,569.624939 
	C535.545471,580.266357 535.386230,590.914307 535.418457,601.559509 
	C535.423767,603.325745 535.009277,605.253601 537.072937,607.114136 
	C559.416260,594.197571 581.897400,581.201355 605.547913,567.529053 
	C603.879211,566.608154 603.282898,566.297485 602.704163,565.956970 
	C592.100830,559.717773 581.489319,553.492554 570.907837,547.216614 
	C569.049500,546.114502 567.470825,546.580994 565.788391,547.560547 
	C561.189819,550.237854 556.556824,552.856262 551.314453,555.884949 
M262.021362,680.498779 
	C262.014160,673.681213 261.882324,666.860657 262.050659,660.047424 
	C262.139252,656.461426 260.837128,654.251343 257.627502,652.511780 
	C249.446198,648.077515 241.460434,643.283569 233.360138,638.697693 
	C231.997833,637.926392 230.750412,636.521851 228.339417,637.414429 
	C228.339417,650.032471 228.436600,662.798889 228.272263,675.561890 
	C228.230270,678.823425 229.377594,680.773621 232.161362,682.336975 
	C240.566879,687.057739 248.856110,691.985107 257.222351,696.776611 
	C258.446686,697.477783 259.639038,698.692871 261.612518,697.700073 
	C262.449585,692.423279 261.816772,686.942200 262.021362,680.498779 
M492.352905,695.759155 
	C499.848633,691.458557 507.289673,687.058044 514.868164,682.908569 
	C517.727112,681.343201 518.818176,679.342407 518.713379,676.117371 
	C518.513855,669.973083 518.663635,663.817566 518.665405,657.666687 
	C518.667419,650.923584 518.665894,644.180481 518.665894,636.308044 
	C507.385468,642.841125 497.083832,648.784851 486.809906,654.776123 
	C484.721283,655.994263 485.007935,658.169861 485.006104,660.145203 
	C484.995514,671.615662 484.990326,683.086304 485.044342,694.556519 
	C485.050995,695.966431 484.559296,697.571960 485.992828,698.782959 
	C488.309448,698.781372 489.830414,697.035156 492.352905,695.759155 
M518.663330,602.493103 
	C518.663330,593.724854 518.663330,584.956604 518.663330,576.019836 
	C517.501587,576.122803 516.948120,576.015991 516.575439,576.227600 
	C506.873108,581.736755 497.199829,587.297119 487.495667,592.803040 
	C485.010956,594.212830 485.014038,596.518921 485.015564,598.887024 
	C485.021057,607.386597 484.949829,615.887085 485.053101,624.385437 
	C485.098785,628.143738 484.472900,631.972717 485.633759,635.845032 
	C487.820709,635.901672 489.273010,634.709534 490.816467,633.818481 
	C496.011017,630.819519 500.902252,627.042480 506.431854,624.931335 
	C516.748596,620.992615 520.789978,614.178467 518.663330,602.493103 
M228.325363,594.500549 
	C228.333862,600.831177 228.430206,607.163452 228.309128,613.491577 
	C228.258224,616.152405 229.254791,617.800110 231.559067,619.103149 
	C239.966614,623.857422 248.280869,628.776489 256.663300,633.575806 
	C258.040161,634.364136 259.371368,635.618652 261.391632,634.863953 
	C261.547668,634.297302 261.866577,633.675232 261.868835,633.052002 
	C261.912720,620.891968 261.881348,608.731689 261.962433,596.572021 
	C261.981598,593.697388 260.069641,592.505066 258.027222,591.327759 
	C250.812912,587.169128 243.610626,582.988342 236.346695,578.917786 
	C234.099213,577.658325 232.138855,575.638672 228.325668,575.699585 
	C228.325668,581.690186 228.325668,587.595642 228.325363,594.500549 
M237.340195,203.012878 
	C237.573395,204.578949 236.761963,206.326691 238.514801,208.182632 
	C245.734085,203.989502 253.034119,199.783508 260.291870,195.505768 
	C261.770264,194.634399 261.771332,193.009033 261.770813,191.490540 
	C261.766693,179.181122 261.766144,166.871689 261.733032,154.562347 
	C261.730469,153.609406 261.855621,152.513504 260.050537,151.590500 
	C253.969299,155.074066 247.586746,158.893158 241.039871,162.406082 
	C238.134781,163.964874 237.208145,165.983810 237.259735,169.195114 
	C237.436066,180.171371 237.335403,191.152054 237.340195,203.012878 
M509.623627,205.389999 
	C509.642059,196.897842 508.763123,188.284317 509.891296,179.942245 
	C511.544281,167.719528 507.312805,160.016296 495.776459,155.970047 
	C492.317322,154.756775 489.685364,151.539551 485.284210,151.261551 
	C485.284210,164.900009 485.320648,178.202744 485.251099,191.504944 
	C485.238342,193.940979 486.657379,195.018631 488.470032,196.060608 
	C494.098358,199.296051 499.656525,202.655121 505.322540,205.822052 
	C506.532318,206.498245 507.974457,208.438950 509.623627,205.389999 
M498.224701,220.342529 
	C494.193665,218.184708 490.486694,215.369263 485.237579,213.638046 
	C485.237579,224.182098 485.869812,234.148285 485.049011,243.993347 
	C484.316254,252.781921 486.847443,258.446960 495.260773,261.697754 
	C499.921356,263.498535 503.851715,267.029877 508.530304,268.626038 
	C510.125092,266.644012 509.636536,264.915009 509.648010,263.313354 
	C509.705200,255.335373 509.797058,247.354645 509.654755,239.378845 
	C509.380188,223.990479 512.038147,228.786850 498.224701,220.342529 
M237.328766,263.218048 
	C237.562195,265.136902 236.767532,267.189728 238.438629,269.638489 
	C245.007965,265.892273 251.533569,262.057739 258.176453,258.438446 
	C260.846619,256.983643 261.890076,255.099991 261.848816,252.053329 
	C261.706787,241.568344 261.828735,231.080032 261.775024,220.593384 
	C261.764465,218.535522 262.214539,216.366058 261.007843,213.891281 
	C254.102982,217.867142 247.551132,221.763947 240.870407,225.425644 
	C238.184967,226.897522 237.214142,228.787079 237.262024,231.826462 
	C237.421936,241.977997 237.325287,252.133575 237.328766,263.218048 
z"/>
<path fill="#000000" opacity="1.000000" stroke="none" 
	d="
M311.697937,433.765594 
	C328.594177,417.805023 345.228607,402.097687 362.897034,385.413971 
	C362.897034,442.634399 362.897034,498.249969 362.897034,553.893311 
	C360.919220,554.285217 360.223969,552.711670 359.276855,551.679260 
	C343.184357,534.137451 327.149536,516.542419 311.001038,499.052368 
	C308.715973,496.577454 307.718872,494.048492 307.557129,490.636688 
	C306.839569,475.499268 306.865509,460.354553 306.559052,445.213287 
	C306.463074,440.470367 307.465820,436.734833 311.697937,433.765594 
z"/>
<path fill="#000000" opacity="1.000000" stroke="none" 
	d="
M402.351135,401.645630 
	C414.349792,412.981293 426.040009,424.129028 437.869843,435.126556 
	C440.394318,437.473419 441.445343,439.956512 441.411591,443.409576 
	C441.252075,459.725281 441.266632,476.041321 440.366028,492.341949 
	C440.260468,494.252472 439.864777,495.855042 438.522186,497.318359 
	C421.526703,515.841797 404.572510,534.403015 387.595459,552.943420 
	C387.053864,553.534912 386.473450,554.205444 385.070984,553.835083 
	C385.070984,498.308868 385.070984,442.681702 385.070984,385.605438 
	C391.293213,391.380585 396.692902,396.392303 402.351135,401.645630 
z"/>
<path fill="#000000" opacity="1.000000" stroke="none" 
	d="
M344.118225,360.826721 
	C324.502686,337.120758 336.556396,301.729706 367.053772,296.198975 
	C382.277557,293.438110 395.543610,298.332703 405.119019,310.759705 
	C414.901794,323.455933 416.434540,337.692352 409.499878,352.092407 
	C402.757202,366.093811 391.144440,373.638824 375.411713,374.320953 
	C362.969147,374.860413 352.751740,370.092163 344.118225,360.826721 
z"/>
</svg>